<?xml version="1.0" standalone="no"?>
<!DOCTYPE svg PUBLIC "-//W3C//DTD SVG 1.0//EN" "http://www.w3.org/TR/2001/REC-SVG-20010904/DTD/svg10.dtd">
<svg xmlns="http://www.w3.org/2000/svg" xmlns:xlink="http://www.w3.org/1999/xlink" id="body_1" width="335" height="103">

<g transform="matrix(0.21996062 0 0 0.21961622 0 0)">
	<g transform="matrix(1.3305144 0 0 1.3292786 -0 1.3046751)">
	</g>
    <path transform="matrix(1.3305144 0 0 1.3292786 -0 1.3046751)"  d="M127.56 147.22C 134.55 137.14 145.17 130.22 156.65 126.270004C 154.47 127.880005 152.61 129.84001 150.78 131.81C 157.09 131.23999 163.6 131.64 169.44 134.3C 170.14 139.92 170.61 145.57 171.46 151.17C 172.56001 145.58 172.86 139.88 173.65001 134.25C 179.49 131.66 185.96 131.24 192.25002 131.81C 190.55002 130.04 188.87001 128.25 187.11002 126.549995C 198.31001 130.47 208.59001 137.37 215.42001 147.19C 213.40001 146.22 211.42001 145.22 209.43001 144.2C 211.88 150 213.43001 156.29 212.89001 162.63C 207.80002 165.03 202.46002 166.98001 197.62001 169.89C 203.16 169.03 208.61002 167.71 214.11002 166.64C 218.36002 171.46 220.58002 177.49 222.49002 183.52C 223.51003 181.43001 224.50002 179.33 225.55002 177.26001C 225.33002 189.25002 221.67001 201.15001 214.47002 210.81001C 214.95001 208.49 215.40001 206.17001 215.85002 203.85C 210.97002 207.93001 205.49002 211.5 199.17001 212.81001C 195.38002 208.72002 191.88002 204.33002 187.72002 200.6C 190.06001 205.66 193.11002 210.36 195.77002 215.25C 192.58002 220.88 187.49002 224.98 182.12003 228.4C 184.42003 228.73999 186.73003 229.06 189.03003 229.4C 183.44003 230.79999 177.75003 232.14 171.95003 232.14C 165.85002 232.26 159.85002 230.9 153.98003 229.38C 156.30003 229.04001 158.62003 228.73001 160.94003 228.39C 155.54004 224.99 150.41003 220.88 147.26004 215.22C 149.95004 210.34 152.97005 205.65 155.30003 200.58C 151.15004 204.32 147.65004 208.7 143.87003 212.8C 137.54002 211.52 132.05002 207.94 127.18002 203.85C 127.63002 206.20001 128.08002 208.55 128.59003 210.89C 121.39003 201.17 117.580025 189.22 117.510025 177.14C 118.45003 179.34 119.52003 181.48 120.61002 183.6C 122.31002 177.48001 124.720024 171.49 128.92003 166.63C 134.40002 167.68001 139.83003 168.99 145.34003 169.87001C 140.56003 166.92001 135.22003 165.03001 130.15002 162.61002C 129.57002 156.28001 131.16002 150.00002 133.59003 144.20001C 131.59003 145.22002 129.58003 146.24 127.56003 147.22002M147.78003 170.34001C 150.44003 179.84001 153.86003 189.12001 156.74004 198.55002C 166.61003 198.58002 176.48004 198.63002 186.34004 198.53001C 189.25005 189.19002 192.35004 179.92001 195.38004 170.62001C 187.57004 164.63 179.46004 159.07 171.59003 153.17001C 163.59003 158.81001 155.79002 164.72002 147.78003 170.34001L147.78003 170.34001L127.56 147.22zM910.44 155.55002C 918.59 153.51003 927.67 154.48001 934.96 158.78001C 942.7 163.40001 947 172.22002 947.89 180.97002C 949.09 189.81001 946.7 199.18002 940.9 206.04001C 932.79004 215.95001 917.73004 218.99 906.21 213.69C 898.55005 210.16 893.52 202.47 891.75 194.4C 889.7 184.92 890.86 174.45 896.14 166.17C 899.38 161.02 904.54004 157.12 910.44 155.55zM588.53 157.65002C 597.81006 156.22003 607.79004 158.89003 614.64 165.42003C 626.77 176.95003 627.79004 198.18002 616.66003 210.72003C 606.31006 222.59003 586.27 225.24004 573.99005 214.88004C 561.24005 203.78003 558.99005 182.54004 569.03 168.96004C 573.62006 162.72003 580.9 158.70004 588.53 157.65004zM1067.61 157.76003C 1076.9 156.14003 1087.01 158.60002 1094.02 165.06003C 1106.4501 176.43002 1107.66 197.84003 1096.5701 210.54002C 1086.3301 222.48003 1066.3401 225.28003 1053.9701 215.07002C 1042.8 205.60002 1039.7001 188.50003 1045.2101 175.21002C 1048.9501 165.97002 1057.78 159.22002 1067.6101 157.76003z" stroke="none" fill="#FFFFFF" fill-rule="nonzero" />
	<g transform="matrix(1.3305144 0 0 1.3292786 -0 1.3046751)">
	</g>
    <path transform="matrix(1.3305144 0 0 1.3292786 -0 1.3046751)"  d="M144.02 3.07C 148.84001 1.6099999 153.82 0.6799998 158.88 1C 163.24 23.95 167.44 46.92 171.74 69.88C 172.12001 71.509995 172.41 74.11 169.99 74.049995C 148.85 77.96 129.38 90.479996 117.51001 108.46999C 116.00001 110.60999 114.96001 113.12999 113.01001 114.92999C 110.55001 114.41999 108.51001 112.84999 106.350006 111.659996C 89.72001 101.95 73.060005 92.28999 56.410007 82.61C 53.90001 81.12 51.230007 79.86 48.990005 77.97C 48.960007 76.880005 49.260006 75.86 49.890007 74.93C 70.19 39.83 104.82001 13.420002 144.02 3.0699997L144.02 3.0699997L144.02 3.07z" stroke="none" fill="#7C227C" fill-rule="nonzero" />
	<g transform="matrix(1.3305144 0 0 1.3292786 -0 1.3046751)">
	</g>
    <path transform="matrix(1.3305144 0 0 1.3292786 -0 1.3046751)"  d="M175.98 19.41C 220.64 12.12 268.13 25.99 302.03 55.91C 303.18 56.76 303.34 58.34 302.17 59.25C 287.27002 76.62 272.2 93.84 257.27002 111.19C 256.16003 112.68 254.05002 114.380005 252.54002 112.33C 238.10002 99.78 219.13002 92.590004 199.99002 92.630005C 194.93002 92.46001 189.95003 93.560005 184.90002 93.490005C 181.31003 70.04001 177.95003 46.550007 174.44002 23.090004C 174.12001 21.740004 174.06001 19.430004 175.98001 19.410004L175.98001 19.410004L175.98 19.41z" stroke="none" fill="#C32B26" fill-rule="nonzero" />
	<g transform="matrix(1.3305144 0 0 1.3292786 -0 1.3046751)">
	</g>
    <path transform="matrix(1.3305144 0 0 1.3292786 -0 1.3046751)"  d="M810.6 66.74C 821.83997 63.829998 834.56995 70.369995 838.52997 81.32C 841.51996 89.11 839.99 98.38 834.74994 104.85C 828.38995 113.009995 816.4699 116.24 806.9099 112.18C 797.1299 108.39 791.17993 97.4 792.6599 87.12C 793.6999 77.5 801.1699 68.96001 810.5999 66.740005L810.5999 66.740005L810.6 66.74zM422.31998 91.049995C 436.46 90.96 450.59998 90.979996 464.72998 91.03999C 464.62 132.9 464.77 174.76 464.65997 216.60999C 481.72998 216.78998 498.80997 216.61998 515.88995 216.69998C 515.85 229.03998 515.92 241.36998 515.85 253.70998C 484.68997 253.65997 453.52997 253.71997 422.36996 253.67998C 422.34998 199.46997 422.42996 145.25998 422.31998 91.04997zM685.27 91.03999C 699.41003 90.98999 713.55005 90.92999 727.69 91.079994C 727.53 132.92 727.72003 174.76999 727.59 216.62C 744.65 216.79 761.71 216.61 778.77 216.70999C 778.73004 229.04 778.77 241.37 778.75 253.7C 747.6 253.69 716.45 253.7 685.31 253.69C 685.27997 199.47 685.35 145.26001 685.27 91.04001zM538.23004 144.20999C 547.49005 132.42 561.05005 123.91999 575.91003 121.48999C 586.29004 119.86999 597.35004 120.46999 606.95 125.05999C 612.95 127.84999 618.07 132.10999 623.08 136.35999C 623.14 131.98999 623.11005 127.609985 623.13 123.23998C 636.1 123.23998 649.07 123.249985 662.04 123.22998C 662.18 166.71999 662.19 210.21997 662.02997 253.70998C 648.83997 253.63997 635.64996 253.77998 622.45996 253.62997C 622.49994 249.46997 622.48 245.30997 622.54 241.14998C 612.81 250.54997 599.63 256.34998 586.07996 256.83997C 569.86993 257.58997 552.99994 252.25996 541.44995 240.57997C 529.16 228.39996 523.57996 210.90997 522.89996 193.91997C 521.77997 176.22997 527.12994 158.09998 538.23 144.20996M588.52997 157.64996C 580.89996 158.69997 573.62 162.71997 569.02997 168.95996C 558.99 182.53996 561.24 203.77997 573.99 214.87996C 586.27 225.23996 606.31 222.58997 616.66 210.71996C 627.79 198.17996 626.76996 176.94995 614.63995 165.41995C 607.79 158.88995 597.80994 156.21996 588.52997 157.64995zM873.43994 134.31996C 891.63995 117.32996 922.89996 115.53996 941.94995 132.07996C 944.0499 133.86995 946.04 135.77995 947.99994 137.72995C 947.99994 132.88995 947.9699 128.04996 948.02997 123.21995C 960.58997 123.279945 973.13995 123.21995 985.69995 123.24995C 985.6699 161.83995 985.72 200.42995 985.6699 239.01994C 985.6399 254.17995 980.5299 269.72995 969.67993 280.59995C 957.07996 293.53995 938.6699 299.26996 920.93994 299.56995C 903.33997 299.89993 884.86993 295.42993 871.27997 283.75995C 862.42 276.29996 856.63995 265.49994 854.94995 254.06995C 869.62994 254.08995 884.30994 253.94995 898.9899 254.13995C 902.0899 258.05997 905.31995 262.46994 910.51996 263.67996C 917.72 265.28995 925.45996 265.02997 932.47 262.63995C 938.14996 260.63995 943.38995 256.43994 945.29 250.55995C 946.82 245.34995 946.29 239.84995 946.14996 234.49995C 935.26996 243.59996 921.42 249.94995 907.01996 249.42996C 893.37994 249.11996 879.92993 243.40996 870.44995 233.55997C 857.92993 220.83997 852.22 202.60997 852.48 185.00996C 852.63 166.32996 859.43 147.08997 873.44 134.31996M910.44 155.54996C 904.54 157.11996 899.38 161.01996 896.14 166.16995C 890.86 174.44995 889.7 184.91995 891.75 194.39995C 893.52 202.46994 898.55 210.15994 906.21 213.68994C 917.73004 218.98994 932.79004 215.94994 940.9 206.03995C 946.7 199.17995 949.09 189.80995 947.89 180.96994C 947 172.21994 942.7 163.39993 934.96 158.77994C 927.67004 154.47993 918.59 153.50993 910.44 155.54994zM1033.25 130.24995C 1046.27 121.69995 1062.76 118.63995 1077.97 122.00996C 1087.6 124.11996 1095.75 130.07996 1103 136.51996C 1102.99 132.08997 1102.99 127.65996 1103.02 123.22996C 1116.01 123.29996 1129 123.15996 1142 123.29996L1142 123.29996L1142 253.66995C 1128.75 253.70995 1115.5 253.67995 1102.25 253.69995C 1102.24 249.55995 1102.24 245.41995 1102.24 241.27995C 1097.78 245.33995 1092.87 248.94995 1087.39 251.48996C 1072.76 258.55997 1055.3 258.40997 1040.21 252.81996C 1026.27 247.64996 1014.99 236.38995 1009.11 222.79996C 1002.99 208.76996 1001.3 192.92996 1003.39996 177.81996C 1006.26996 158.78996 1017.01996 140.80997 1033.25 130.24997M1067.61 157.75996C 1057.78 159.21997 1048.95 165.96997 1045.21 175.20996C 1039.7 188.49995 1042.7999 205.59996 1053.97 215.06996C 1066.34 225.27997 1086.33 222.47997 1096.57 210.53996C 1107.6599 197.83997 1106.45 176.42996 1094.0199 165.05997C 1087.0099 158.59996 1076.8999 156.13997 1067.6099 157.75996zM796.24 123.23996C 809.37 123.24996 822.5 123.22996 835.64 123.24996C 835.62 166.72997 835.62 210.20996 835.63 253.68997C 822.5 253.69997 809.38 253.67998 796.25 253.69997C 796.24 210.20996 796.25 166.72997 796.24 123.23996z" stroke="none" fill="#1F1E21" fill-rule="nonzero" />
	<g transform="matrix(1.3305144 0 0 1.3292786 -0 1.3046751)">
	</g>
    <path transform="matrix(1.3305144 0 0 1.3292786 -0 1.3046751)"  d="M23.48 78.39C 24.85 78.24 26.029999 79.26 27.24 79.76C 47.14 90.54 67.14 101.12 87.03 111.91C 88.94 112.490005 88.96 114.54 87.92 115.920006C 77.619995 135.07 75.54 158.49 82.58 179.09C 83.21 181.04 84.12 182.94 84.33 185.01C 83.840004 186.4 82.17 186.56 81.04 187.18C 60.02 195.2 39.05 203.34 18.060001 211.42C 16.77 211.81 14.740002 212.73 14.290001 210.81C -2.6699982 169.18 0.42000103 120.189995 21.61 80.630005C 22.033009 79.736664 22.676569 78.96577 23.480001 78.39001L23.480001 78.39001L23.48 78.39z" stroke="none" fill="#3C5399" fill-rule="nonzero" />
	<g transform="matrix(1.3305144 0 0 1.3292786 -0 1.3046751)">
	</g>
    <path transform="matrix(1.3305144 0 0 1.3292786 -0 1.3046751)"  d="M297.01 82.98C 298.1 81.75 299.65002 82.350006 300.54 83.46001C 333.43 114.28001 351.75 160.03 348.86002 205.03C 349.03003 207.18 346.37003 206.69 345.04 206.75C 322.04 205.57 299.02002 204.56 276.03 203.35C 273.69 203.5 273.97 200.61 274 199.05C 274.5 186.71 271.93 174.3 266.82 163.06C 262.29 152.70999 255.06001 143.88 247.07 136C 248.40001 134.34 249.73001 132.69 251.19 131.15C 266.53 115.149994 281.65 98.939995 297.01 82.979996L297.01 82.979996L297.01 82.98z" stroke="none" fill="#D57C2C" fill-rule="nonzero" />
	<g transform="matrix(1.3305144 0 0 1.3292786 -0 1.3046751)">
	</g>
    <path transform="matrix(1.3305144 0 0 1.3292786 -0 1.3046751)"  d="M160.46 120.65C 172.36 118.41 184.98001 119.840004 195.98001 124.96C 210.29001 131.5 221.74 144.03 226.88 158.91C 232.14 173.78 231.05 190.8 223.81 204.83C 217.28 217.77 205.76 228.12 192.17 233.19C 180.64 237.57 167.72 238.13 155.85 234.83C 140.57 230.67 127.26001 219.97 119.810005 206.01001C 112.90001 193.33002 111.08 178.03001 114.58 164.03001C 119.8 142.31001 138.47 124.63001 160.46 120.65001M127.560005 147.22C 129.58 146.24 131.59001 145.22 133.59001 144.2C 131.16002 150 129.57 156.28 130.15001 162.61C 135.22002 165.03 140.56001 166.92 145.34001 169.87C 139.83002 168.98999 134.40001 167.68 128.92001 166.62999C 124.72002 171.48999 122.31001 177.48 120.610016 183.59999C 119.52002 181.48 118.45001 179.34 117.51002 177.13998C 117.58002 189.21999 121.390015 201.16998 128.59001 210.88998C 128.08002 208.54999 127.63001 206.19998 127.18001 203.84999C 132.05 207.93999 137.54001 211.51999 143.87001 212.79999C 147.65001 208.69998 151.15001 204.31999 155.30002 200.57999C 152.97002 205.65 149.95001 210.33998 147.26003 215.21999C 150.41002 220.87999 155.54002 224.98999 160.94003 228.38998C 158.62003 228.72998 156.30003 229.03998 153.98003 229.37999C 159.85002 230.9 165.85002 232.26 171.95003 232.13998C 177.75003 232.13998 183.44003 230.79999 189.03003 229.39998C 186.73003 229.05998 184.42003 228.73997 182.12003 228.39998C 187.49002 224.97998 192.58003 220.87997 195.77002 215.24998C 193.11002 210.35999 190.06001 205.65999 187.72002 200.59999C 191.88002 204.32999 195.38002 208.71999 199.17001 212.81C 205.49002 211.5 210.97002 207.93 215.85 203.84999C 215.40001 206.17 214.95001 208.48999 214.47 210.81C 221.67 201.15 225.33 189.25 225.55 177.26C 224.5 179.33 223.51001 181.43 222.49 183.51999C 220.58 177.48999 218.36 171.45999 214.11 166.63998C 208.61 167.70999 203.16 169.02998 197.62 169.88998C 202.45999 166.97998 207.79999 165.02998 212.89 162.62999C 213.43 156.29 211.88 149.99998 209.43 144.19998C 211.42 145.21999 213.4 146.21999 215.42 147.18999C 208.59 137.37 198.31 130.46999 187.11 126.54999C 188.87 128.24998 190.55 130.04 192.25 131.80998C 185.96 131.23997 179.49 131.65999 173.65 134.24998C 172.86 139.87999 172.56 145.57999 171.45999 151.16998C 170.60999 145.56998 170.13998 139.91998 169.43999 134.29999C 163.59999 131.63998 157.08998 131.23999 150.77998 131.80998C 152.60999 129.83998 154.46999 127.87998 156.64998 126.26998C 145.16998 130.21999 134.54997 137.13998 127.55998 147.21999L127.55998 147.21999L160.46 120.65z" stroke="none" fill="#010000" fill-rule="nonzero" />
	<g transform="matrix(1.3305144 0 0 1.3292786 -0 1.3046751)">
	</g>
    <path transform="matrix(1.3305144 0 0 1.3292786 -0 1.3046751)"  d="M147.78 170.34C 155.79 164.72 163.59 158.81 171.59 153.17C 179.45999 159.06999 187.56999 164.63 195.38 170.62C 192.35 179.92 189.25 189.19 186.34001 198.53C 176.48001 198.63 166.61002 198.58 156.74 198.55C 153.86 189.12 150.44 179.84 147.78 170.34z" stroke="none" fill="#020001" fill-rule="nonzero" />
	<g transform="matrix(1.3305144 0 0 1.3292786 -0 1.3046751)">
	</g>
    <path transform="matrix(1.3305144 0 0 1.3292786 -0 1.3046751)"  d="M61.07 205.01C 63.329998 204 65.61 202.98 68.05 202.45999C 69.91 204.62999 70.86 207.38998 72.170006 209.9C 82.19 229.62 100.91 244.23 122.05 250.34C 121.61 252.44 121.170006 254.55 120.57 256.61C 114.77 274.91998 109.12 293.27 103.39 311.59998C 102.42 314.64996 101.72 317.80997 100.34 320.70996C 99.32 322.13995 97.64 321.12997 96.31 320.87997C 53.359997 307.44998 17.029999 274.33 0 232.64996L0 232.64996L0 231.74997C 20.14 222.37997 40.77 214.04997 61.07 205.00996L61.07 205.00996L61.07 205.01z" stroke="none" fill="#5B82BD" fill-rule="nonzero" />
	<g transform="matrix(1.3305144 0 0 1.3292786 -0 1.3046751)">
	</g>
    <path transform="matrix(1.3305144 0 0 1.3292786 -0 1.3046751)"  d="M252.13 212.09C 253.61 211.34 255.31 211.75 256.9 211.78C 279.97 213.72 303.07 215.25 326.13 217.28C 326.25 218.49 326.32 219.70999 326.35 220.94C 323.06 265.49 299.1 307.99 262.83002 334.04C 261.22003 335.61002 259.56003 333.7 258.68002 332.4C 245.20003 313.85 231.50003 295.44 218.06003 276.86C 216.41003 275.22998 218.20003 273.56998 219.55003 272.62997C 235.86003 260.62997 247.15004 242.12997 250.60004 222.18997C 251.25003 218.83997 251.08003 215.34998 252.13004 212.08997L252.13004 212.08997L252.13 212.09z" stroke="none" fill="#F8E437" fill-rule="nonzero" />
	<g transform="matrix(1.3305144 0 0 1.3292786 -0 1.3046751)">
	</g>
    <path transform="matrix(1.3305144 0 0 1.3292786 -0 1.3046751)"  d="M195.15 262.32C 196.45 261.43 197.34999 263.19 198.06 263.99002C 210.67 282.69003 223.18 301.47003 235.79 320.17C 236.39 321.05002 236.90999 321.98 237.37999 322.94C 237.43999 324.44 235.87999 325.1 234.90999 325.91C 215.41998 338.81 193.01999 347.28 169.85999 350.39C 165.93999 351.18002 161.94998 351.46002 157.95999 351C 149.95 351.07 141.90999 350.62 133.95 351.54C 124.689995 349.65 115.14 348.86002 106.17 345.72C 104.53 345.27 105.38 343.19 105.57 342.02C 111.69 320.06998 117.68 298.06998 123.79 276.11C 123.840004 273.83 126.11 273.03998 127.95 273.96C 142.65 277.99 158.48999 277.61 173.01999 273.02C 180.94998 270.69998 188.12999 266.56 195.15 262.31998L195.15 262.31998L195.15 262.32z" stroke="none" fill="#61A244" fill-rule="nonzero" />
</g>
</svg>